<svg width="31" height="31" viewBox="0 0 31 31" fill="none" xmlns="http://www.w3.org/2000/svg">
<path d="M14.5312 21.9583H16.4688V16.4688H21.9583V14.5312H16.4688V9.04167H14.5312V14.5312H9.04167V16.4688H14.5312V21.9583ZM5.8125 27.125C5.29583 27.125 4.84375 26.9312 4.45625 26.5437C4.06875 26.1562 3.875 25.7042 3.875 25.1875V5.8125C3.875 5.29583 4.06875 4.84375 4.45625 4.45625C4.84375 4.06875 5.29583 3.875 5.8125 3.875H25.1875C25.7042 3.875 26.1562 4.06875 26.5437 4.45625C26.9312 4.84375 27.125 5.29583 27.125 5.8125V25.1875C27.125 25.7042 26.9312 26.1562 26.5437 26.5437C26.1562 26.9312 25.7042 27.125 25.1875 27.125H5.8125ZM5.8125 25.1875H25.1875V5.8125H5.8125V25.1875ZM5.8125 25.1875V5.8125V25.1875Z" fill="white"/>
</svg>
