<svg width="31" height="31" viewBox="0 0 31 31" fill="none" xmlns="http://www.w3.org/2000/svg">
<path d="M3.55207 25.8334C3.09998 25.8334 2.79859 25.6181 2.6479 25.1875C2.4972 24.757 2.60484 24.391 2.97082 24.0896L14.5312 15.0156V13.2396C14.5312 12.9597 14.6227 12.7283 14.8057 12.5453C14.9887 12.3623 15.2094 12.2709 15.4677 12.2709C16.1996 12.2924 16.8186 12.0502 17.3245 11.5443C17.8304 11.0384 18.0833 10.4195 18.0833 9.68752C18.0833 8.9771 17.8304 8.36894 17.3245 7.86304C16.8186 7.35714 16.2104 7.10419 15.5 7.10419C14.7896 7.10419 14.1814 7.35714 13.6755 7.86304C13.1696 8.36894 12.9166 8.9771 12.9166 9.68752H10.9791C10.9791 8.43891 11.4205 7.37328 12.3031 6.49065C13.1857 5.60801 14.2514 5.16669 15.5 5.16669C16.7486 5.16669 17.8142 5.59724 18.6969 6.45835C19.5795 7.31946 20.0208 8.37433 20.0208 9.62294C20.0208 10.6778 19.6871 11.6143 19.0198 12.4323C18.3524 13.2504 17.5021 13.8101 16.4687 14.1115V15.0156L28.0291 24.0896C28.3951 24.391 28.5028 24.757 28.3521 25.1875C28.2014 25.6181 27.9 25.8334 27.4479 25.8334H3.55207ZM6.45832 23.8959H24.5416L15.5 16.6948L6.45832 23.8959Z" fill="white"/>
</svg>
