<svg width="39" height="39" viewBox="0 0 39 39" fill="none" xmlns="http://www.w3.org/2000/svg">
<path d="M32.8421 39C28.5356 39 24.4002 38.1852 20.4358 36.5555C16.4714 34.9258 12.9799 32.6958 9.9613 29.8653C6.94272 27.0349 4.52786 23.6683 2.71672 19.7657C0.905573 15.8631 0 11.6174 0 7.02861C0 5.52761 0.392415 4.25176 1.17724 3.20105C1.96207 2.15035 3.09907 1.625 4.58823 1.625H9.1161C9.9613 1.625 10.6254 1.89304 11.1084 2.42911C11.5913 2.96518 11.9334 3.74785 12.1347 4.77711C12.3762 5.80637 12.6176 6.87851 12.8591 7.99355C13.1006 9.10858 13.3824 10.095 13.7043 10.9527C14.0263 11.6817 14.1169 12.3572 13.976 12.979C13.8351 13.6009 13.5031 14.212 12.9799 14.8124L9.17647 18.7364C10.7461 21.1809 12.9195 23.5397 15.6966 25.8126C18.4737 28.0856 21.1703 29.6295 23.7864 30.4443L26.0201 25.6196C26.3019 24.9763 26.6741 24.5475 27.137 24.3331C27.5998 24.1186 28.2337 24.0543 29.0387 24.1401C29.8839 24.2258 30.7291 24.2687 31.5743 24.2687C32.4195 24.2687 33.3653 24.2258 34.4118 24.1401C35.3777 24.0543 36.1927 24.3223 36.8568 24.9442C37.5209 25.566 37.9536 26.5846 38.1548 27.9998L38.9396 32.6958C38.9799 32.8244 39 33.1246 39 33.5964C39 35.0545 38.4567 36.3196 37.37 37.3918C36.2833 38.4639 34.774 39 32.8421 39Z" fill="white"/>
</svg>
