<svg width="31" height="31" viewBox="0 0 31 31" fill="none" xmlns="http://www.w3.org/2000/svg">
<path d="M15.5 25.8334C12.6368 25.8334 10.1988 24.8269 8.18596 22.8141C6.17311 20.8012 5.16669 18.3632 5.16669 15.5C5.16669 12.6368 6.17311 10.1988 8.18596 8.18596C10.1988 6.17311 12.6368 5.16669 15.5 5.16669C17.3299 5.16669 18.9337 5.53804 20.3115 6.28075C21.6893 7.02346 22.884 8.04065 23.8959 9.33231V5.16669H25.8334V13.3688H17.6313V11.4313H23.0563C22.2382 10.1396 21.1941 9.09551 19.924 8.29898C18.6538 7.50245 17.1792 7.10419 15.5 7.10419C13.1535 7.10419 11.1676 7.91686 9.54221 9.54221C7.91686 11.1676 7.10419 13.1535 7.10419 15.5C7.10419 17.8465 7.91686 19.8325 9.54221 21.4578C11.1676 23.0832 13.1535 23.8959 15.5 23.8959C17.2868 23.8959 18.9229 23.3846 20.4084 22.362C21.8938 21.3394 22.9271 19.9886 23.5084 18.3094H25.5104C24.8861 20.5698 23.6483 22.3889 21.7969 23.7667C19.9455 25.1445 17.8465 25.8334 15.5 25.8334Z" fill="white"/>
</svg>
