<svg width="59" height="59" viewBox="0 0 59 59" fill="none" xmlns="http://www.w3.org/2000/svg">
<path d="M29.5 0C14.9344 0 0 3.13437 0 25.8125C0 37.9812 4.24063 45.5406 12.9062 49.0438V55.8656C12.9062 57.1562 13.6437 58.2625 14.75 58.8156C15.1188 59 15.6719 59 16.0406 59C16.7781 59 17.7 58.6313 18.2531 58.0781L24.8906 51.4406C26.3656 51.4406 27.8406 51.625 29.5 51.625C44.0656 51.625 59 48.4906 59 25.8125C59 3.13437 44.0656 0 29.5 0Z" fill="#7B519C"/>
<path d="M28.5781 16.7781C33.0031 16.7781 36.6906 20.4656 36.6906 24.8906C36.6906 25.9968 37.4281 26.7343 38.5344 26.7343C39.6406 26.7343 40.3781 25.9968 40.3781 24.8906C40.3781 18.4375 35.0312 13.0906 28.5781 13.0906C27.4719 13.0906 26.7344 13.8281 26.7344 14.9343C26.7344 16.0406 27.4719 16.7781 28.5781 16.7781Z" fill="white"/>
<path d="M28.5781 22.4937C29.8687 22.4937 30.975 23.5999 30.975 24.8905C30.975 25.9968 31.7125 26.7343 32.8187 26.7343C33.925 26.7343 34.6625 25.9968 34.6625 24.8905C34.6625 21.5718 31.8969 18.8062 28.5781 18.8062C27.4719 18.8062 26.7344 19.5437 26.7344 20.6499C26.7344 21.7562 27.4719 22.4937 28.5781 22.4937Z" fill="white"/>
<path d="M28.5781 7.375C27.4719 7.375 26.7344 8.1125 26.7344 9.21875C26.7344 10.325 27.4719 11.0625 28.5781 11.0625C36.1375 11.0625 42.4062 17.3313 42.4062 24.8906C42.4062 25.9969 43.1437 26.7344 44.25 26.7344C45.3563 26.7344 46.0938 25.9969 46.0938 24.8906C46.0938 15.3031 38.1656 7.375 28.5781 7.375Z" fill="white"/>
<path d="M40.3781 31.5281L40.0094 31.3438C40.0094 31.3438 35.9531 29.3156 35.2156 29.1313C33.7406 28.5781 32.2656 28.9469 31.3437 30.2375L31.1594 30.6063C30.7906 31.1594 30.2375 31.8969 29.8688 32.2656C28.9469 31.8969 27.2875 31.1594 25.075 29.3156C23.6 28.025 22.4937 26.3656 21.9406 25.4438C22.125 25.2594 22.125 25.2594 22.3094 25.075C22.4937 24.8906 22.6781 24.7063 22.8625 24.5219C23.2312 24.1531 23.4156 23.7844 23.7844 23.2313C24.1531 22.3094 24.1531 21.3875 23.7844 20.2812C23.6 19.9125 22.8625 18.2531 22.3094 16.9625L21.5719 15.4875C20.8344 13.6437 19.7281 13.275 18.4375 13.275C18.2531 12.9062 18.0688 12.9062 17.7 12.9062C16.225 12.9062 14.9344 13.4594 14.0125 14.3813C13.0906 15.3031 11.0625 17.3313 11.0625 21.3875C11.0625 24.7063 13.0906 27.8406 14.1969 29.5L14.3813 29.6844C17.8844 34.8469 22.3094 38.5344 26.7344 40.3781C30.6062 42.0375 32.8187 42.4062 34.2937 42.4062C35.0312 42.4062 35.5844 42.4062 35.9531 42.2219C38.35 41.6687 41.1156 40.0094 41.8531 37.7969C42.2219 36.5063 42.775 34.2937 42.0375 33.0031C41.6687 32.2656 40.9312 31.8969 40.3781 31.5281Z" fill="white"/>
</svg>
