<svg width="59" height="59" viewBox="0 0 59 59" fill="none" xmlns="http://www.w3.org/2000/svg">
<path d="M53 0H6C2.68629 0 0 2.68629 0 6V53C0 56.3137 2.68629 59 6 59H53C56.3137 59 59 56.3137 59 53V6C59 2.68629 56.3137 0 53 0Z" fill="#0177FF"/>
<path d="M10.0049 17.9478C12.2292 17.9478 14.4373 17.9478 16.6587 17.9478C16.6734 18.0171 16.6926 18.0717 16.697 18.1277C16.7781 19.2354 16.8121 20.3476 16.9433 21.4494C17.2723 24.19 17.9434 26.8376 19.2679 29.2861C20.178 30.9676 21.3462 32.4337 22.9053 33.5636C23.6752 34.1211 24.5101 34.5548 25.4187 34.838C25.4836 34.8586 25.5514 34.8763 25.6178 34.8911C25.6547 34.8999 25.6945 34.9014 25.7697 34.9088C25.7786 34.7465 25.7919 34.5946 25.7919 34.4427C25.7933 29.497 25.7919 24.5499 25.7919 19.6042C25.7919 19.1617 25.7904 18.7192 25.7933 18.2767C25.7933 18.172 25.8096 18.0672 25.8184 17.9537C27.9365 17.9537 30.0251 17.9537 32.1535 17.9537C32.1535 21.1839 32.1535 24.3935 32.1535 27.6208C32.5901 27.6179 32.9677 27.5131 33.3394 27.3966C34.5799 27.0116 35.667 26.3479 36.6449 25.5071C38.9267 23.5483 40.477 21.1043 41.3944 18.2501C41.4239 18.1572 41.4578 18.0658 41.4977 17.9537C43.5995 17.9537 45.697 17.9537 47.8402 17.9537C47.79 18.2044 47.7502 18.433 47.7 18.6587C47.2044 20.8535 46.2796 22.861 44.9993 24.7033C43.5995 26.7181 41.9018 28.4365 39.853 29.7979C39.6731 29.9174 39.4902 30.0324 39.3088 30.1504C39.3014 30.1549 39.2984 30.1667 39.2793 30.2021C41.7499 31.4307 43.8459 33.1344 45.5923 35.2672C47.3387 37.4015 48.5718 39.7999 49.3048 42.4608C49.0438 42.5345 42.6895 42.5478 42.3251 42.48C42.2853 42.3767 42.2381 42.2602 42.1968 42.1422C41.3856 39.853 40.1053 37.8794 38.235 36.3115C36.5579 34.9058 34.6301 34.0577 32.4589 33.7745C32.3748 33.7642 32.2863 33.773 32.1624 33.773C32.1624 36.6788 32.1624 39.5742 32.1624 42.4918C32.0311 42.5036 31.9352 42.5198 31.8394 42.5198C29.3805 42.5286 26.9542 42.2912 24.5838 41.6009C21.802 40.7896 19.3196 39.4444 17.1852 37.4738C15.1453 35.5902 13.6334 33.335 12.5124 30.8083C11.5817 28.7138 10.9593 26.5278 10.5566 24.274C10.2055 22.3064 10.0035 20.324 9.96512 18.3254C9.96364 18.2369 9.96364 18.1484 9.96807 18.0599C9.97102 18.0333 9.98577 18.0068 10.0049 17.9478Z" fill="white"/>
</svg>
